<svg xmlns="http://www.w3.org/2000/svg" version="1.1" xmlns:xlink="http://www.w3.org/1999/xlink" xmlns:svgjs="http://svgjs.dev/svgjs" viewBox="0 0 1920 1080" class="overflow-hidden rounded-md drop-shadow-lg transition duration-300" style="overflow: hidden; height: 85vh;"><rect width="1920" height="1080" fill="#21607d"/><g clip-path="url(&quot;#SvgjsClipPath1554&quot;)"><g transform="matrix(1.15,0,0,1.15,-140.76057300567618,-81)"><path d="M0,-1080C-2.5896511738222094,-985.5960633490051,-21.544500605200874,-700.4810703153531,-15.537907042933256,-513.5763800940307C-9.531313480665638,-326.67168987270827,40.64850839926817,-140.97718146217076,36.03956137360571,41.42814132793427C31.430614347943244,223.8334641180393,-42.91317815981241,413.6567165775027,-43.191589196908026,580.8555566465993C-43.47000023400364,748.0543967156959,30.75551124537542,877.7474051006102,34.36909515103203,1044.6211817425137C37.98267905668864,1211.4949583844173,-15.781903237796367,1396.2017467884396,-21.510085762968373,1582.0982164980205C-27.23826828814038,1767.9946862076015,-3.585014293828062,2063.6830360830036,0,2160L 1920 2160 L 1920 -1080 Z" fill="url(&quot;#SvgjsLinearGradient1548&quot;)"/><path d="M320,-1080C323.83485323736204,-996.0193261523386,354.0170864570266,-720.9581702989451,343.0091194241724,-576.1159569140319C332.0011523913182,-431.27374352911875,261.4812168586732,-349.7721042642089,253.952197802875,-210.94671969052067C246.4231787470768,-72.12133511683243,277.5498965683456,104.12886523565734,297.83500508938334,256.83635052809757C318.1201136104211,409.54383582053777,382.27581647846586,541.0894076440436,375.6628489291012,705.2981920641206C369.0498813797365,869.5069764841976,275.1096681925363,1077.2739290014183,258.15719979319545,1242.0890570485592C241.20473139385462,1406.9041850957,263.6409051652554,1541.2038031883924,273.94803853305615,1694.1889603469658C284.2551719008569,1847.1741175055392,312.3246730888427,2082.3648267244944,320,2160L 1920 2160 L 1920 -1080 Z" fill="url(&quot;#SvgjsLinearGradient1549&quot;)"/><path d="M640,-1080C630.3003794861819,-1007.2159889580798,580.0658982859552,-805.5908644184973,581.8022769170915,-643.2959337484792C583.5386555482278,-481.00100307846117,642.5508835414608,-262.0921903028325,650.4182717868177,-106.23041597989163C658.2856600321746,49.631358343049186,632.9231035460498,136.9005387005486,629.0066063892327,291.8747121891656C625.0901092324157,446.8488856777826,615.5176219357347,669.1313331406428,626.919288845915,823.6146249518105C638.3209557560954,978.0979167629781,696.6947899205577,1068.2591494290962,697.4166078503146,1218.7744630561717C698.1384257800714,1369.2897766832473,640.8196310661756,1569.835583890293,631.2501964244565,1726.7065067142644C621.6807617827374,1883.5774295382357,638.5416994040761,2087.7844177857105,640,2160L 1920 2160 L 1920 -1080 Z" fill="url(&quot;#SvgjsLinearGradient1550&quot;)"/><path d="M960,-1080C967.9267455254741,-999.4934088477908,1012.7161088539251,-746.7528984883754,1007.5604731528446,-596.9604530867442C1002.404837451764,-447.168007685113,934.9694331784965,-335.873610602944,929.0661857935169,-181.24532759021258C923.1629384085372,-26.61704457748118,964.1826623709394,166.04685236265672,972.140988842967,330.8092449896442C980.0993153149946,495.5716376166316,976.8505416055573,666.7705203595806,976.8161446256827,807.3290281717121C976.7817476458081,947.8875359838437,981.0377808573728,1034.2659972734352,971.9346069637196,1174.1602918624333C962.8314330700664,1314.0545864514313,924.1862024243835,1482.388177682772,922.1971012637636,1646.6947957056998C920.2080001031436,1811.0014137286275,953.699516877294,2074.4491326176167,960,2160L 1920 2160 L 1920 -1080 Z" fill="url(&quot;#SvgjsLinearGradient1551&quot;)"/><path d="M1280,-1080C1282.8569402272374,-936.1288363420645,1286.8631592897557,-483.77376989450846,1297.141641363424,-216.77301805238665C1307.4201234370923,50.22773378973517,1339.3941154001573,252.08740085074334,1341.6708924420095,522.004511052731C1343.9476694838618,791.9216212547187,1321.0807856882052,1129.7303950016612,1310.8023036145369,1402.7296431595394C1300.5238215408685,1675.7288913174175,1285.1337172690894,2033.7882738599233,1280,2160L 1920 2160 L 1920 -1080 Z" fill="url(&quot;#SvgjsLinearGradient1552&quot;)"/><path d="M1600,-1080C1605.8912164476865,-983.1282540859173,1639.4446303233563,-680.7091999500755,1635.3472986861195,-498.76952451550363C1631.2499670488828,-316.8298490809318,1586.8497881797236,-163.55376506364536,1575.4160101765794,11.638052607430907C1563.9822321734352,186.82987027850714,1554.705964140985,365.36651440199,1566.7446306672546,552.3813815109538C1578.783297193524,739.3962486199176,1634.449114872684,955.6839984459895,1647.6480093341963,1133.7272552612137C1660.8469037957086,1311.770512076438,1653.879332325361,1449.5954649458351,1645.9379974363283,1620.6409224022996C1637.9966625472955,1791.686379858764,1607.6563329060548,2070.106820400383,1600,2160L 1920 2160 L 1920 -1080 Z" fill="url(&quot;#SvgjsLinearGradient1553&quot;)"/></g></g><defs><linearGradient x1="0.1" y1="0" x2="0" y2="1" id="SvgjsLinearGradient1548"><stop stop-color="#21607d" offset="0"/><stop stop-color="#216f7d" offset="0"/></linearGradient><linearGradient x1="0.1" y1="0" x2="0" y2="1" id="SvgjsLinearGradient1549"><stop stop-color="#2d83ab" offset="0"/><stop stop-color="#2d98ab" offset="0.16666666666666666"/></linearGradient><linearGradient x1="0.1" y1="0" x2="0" y2="1" id="SvgjsLinearGradient1550"><stop stop-color="#45a3ce" offset="0"/><stop stop-color="#45bace" offset="0.3333333333333333"/></linearGradient><linearGradient x1="0.1" y1="0" x2="0" y2="1" id="SvgjsLinearGradient1551"><stop stop-color="#73b9da" offset="0"/><stop stop-color="#73cada" offset="0.5"/></linearGradient><linearGradient x1="0.1" y1="0" x2="0" y2="1" id="SvgjsLinearGradient1552"><stop stop-color="#a1d0e6" offset="0"/><stop stop-color="#a1dbe6" offset="0.6666666666666666"/></linearGradient><linearGradient x1="0.1" y1="0" x2="0" y2="1" id="SvgjsLinearGradient1553"><stop stop-color="#cfe7f2" offset="0"/><stop stop-color="#cfedf2" offset="0.8333333333333334"/></linearGradient><clipPath id="SvgjsClipPath1554"><rect width="1920" height="1080"/></clipPath></defs></svg>